<?xml version="1.0" encoding="iso-8859-1"?>
<!-- Generator: Adobe Illustrator 19.0.0, SVG Export Plug-In . SVG Version: 6.00 Build 0)  -->
<svg version="1.1" id="Layer_1" xmlns="http://www.w3.org/2000/svg" xmlns:xlink="http://www.w3.org/1999/xlink" x="0px" y="0px"
	 viewBox="0 0 512 512" style="enable-background:new 0 0 512 512;" xml:space="preserve">
<g>
	<g>
		<path d="M215.828,245.953L33.783,149.242c-3.528-1.877-7.778-1.762-11.2,0.296c-3.422,2.057-5.517,5.758-5.517,9.751v193.422
			c0,3.993,2.094,7.695,5.517,9.751c1.8,1.082,3.828,1.626,5.861,1.626c1.831,0,3.667-0.442,5.339-1.331l182.044-96.711
			c3.717-1.974,6.039-5.839,6.039-10.047S219.544,247.926,215.828,245.953z M39.822,333.783V178.217L186.236,256L39.822,333.783z"/>
	</g>
</g>
<g>
	<g>
		<path d="M489.417,149.538c-3.419-2.057-7.669-2.172-11.2-0.296l-182.044,96.711c-3.717,1.973-6.039,5.839-6.039,10.047
			s2.322,8.074,6.039,10.047l182.044,96.711c1.672,0.889,3.506,1.331,5.339,1.331c2.033,0,4.061-0.544,5.861-1.626
			c3.422-2.057,5.517-5.758,5.517-9.751V159.289C494.933,155.296,492.839,151.594,489.417,149.538z M472.178,333.783L325.764,256
			l146.414-77.783V333.783z"/>
	</g>
</g>
<g>
	<g>
		<rect x="244.622" width="22.756" height="56.889"/>
	</g>
</g>
<g>
	<g>
		<rect x="244.622" y="113.778" width="22.756" height="56.889"/>
	</g>
</g>
<g>
	<g>
		<rect x="244.622" y="227.556" width="22.756" height="56.889"/>
	</g>
</g>
<g>
	<g>
		<rect x="244.622" y="341.333" width="22.756" height="56.889"/>
	</g>
</g>
<g>
	<g>
		<rect x="244.622" y="455.111" width="22.756" height="56.889"/>
	</g>
</g>
<g>
</g>
<g>
</g>
<g>
</g>
<g>
</g>
<g>
</g>
<g>
</g>
<g>
</g>
<g>
</g>
<g>
</g>
<g>
</g>
<g>
</g>
<g>
</g>
<g>
</g>
<g>
</g>
<g>
</g>
</svg>
